<mxfile host="Electron" modified="2024-04-26T04:37:19.609Z" agent="Mozilla/5.0 (X11; Linux x86_64) AppleWebKit/537.36 (KHTML, like Gecko) draw.io/21.6.5 Chrome/114.0.5735.243 Electron/25.3.1 Safari/537.36" etag="ZB0b2TJ1hk8ySEO7ykHn" version="21.6.5" type="device">
  <diagram name="Page-1" id="zARZIbWvq2HvYOBy27li">
    <mxGraphModel dx="828" dy="558" grid="1" gridSize="10" guides="1" tooltips="1" connect="1" arrows="1" fold="1" page="1" pageScale="1" pageWidth="827" pageHeight="1169" math="0" shadow="0">
      <root>
        <mxCell id="0" />
        <mxCell id="1" parent="0" />
        <mxCell id="1UUe8_n6p-gTxrZzP8t--5" value="wr_addr&#39;0" style="text;html=1;strokeColor=none;fillColor=none;align=center;verticalAlign=middle;whiteSpace=wrap;rounded=0;fontFamily=Courier New;fontColor=#006600;" parent="1" vertex="1">
          <mxGeometry x="340" y="410" width="80" height="20" as="geometry" />
        </mxCell>
        <mxCell id="1UUe8_n6p-gTxrZzP8t--6" value="" style="rounded=0;whiteSpace=wrap;html=1;fillColor=#d5e8d4;strokeColor=#82b366;" parent="1" vertex="1">
          <mxGeometry x="400" y="290" width="40" height="120" as="geometry" />
        </mxCell>
        <mxCell id="1UUe8_n6p-gTxrZzP8t--7" value="" style="rounded=0;whiteSpace=wrap;html=1;fillColor=#f8cecc;strokeColor=#b85450;" parent="1" vertex="1">
          <mxGeometry x="440" y="290" width="40" height="120" as="geometry" />
        </mxCell>
        <mxCell id="1UUe8_n6p-gTxrZzP8t--9" value="" style="group" parent="1" vertex="1" connectable="0">
          <mxGeometry x="360" y="430" width="40" height="40" as="geometry" />
        </mxCell>
        <mxCell id="1UUe8_n6p-gTxrZzP8t--4" value="+1" style="rounded=0;whiteSpace=wrap;html=1;fillColor=#dae8fc;strokeColor=#6c8ebf;" parent="1UUe8_n6p-gTxrZzP8t--9" vertex="1">
          <mxGeometry width="40" height="40" as="geometry" />
        </mxCell>
        <mxCell id="1UUe8_n6p-gTxrZzP8t--8" value="" style="triangle;whiteSpace=wrap;html=1;rotation=-90;fillColor=#dae8fc;strokeColor=#6c8ebf;" parent="1UUe8_n6p-gTxrZzP8t--9" vertex="1">
          <mxGeometry x="15" y="25" width="10" height="20" as="geometry" />
        </mxCell>
        <mxCell id="1UUe8_n6p-gTxrZzP8t--11" value="" style="group" parent="1" vertex="1" connectable="0">
          <mxGeometry x="480" y="520" width="40" height="40" as="geometry" />
        </mxCell>
        <mxCell id="1UUe8_n6p-gTxrZzP8t--12" value="+1" style="rounded=0;whiteSpace=wrap;html=1;fillColor=#dae8fc;strokeColor=#6c8ebf;" parent="1UUe8_n6p-gTxrZzP8t--11" vertex="1">
          <mxGeometry width="40" height="40" as="geometry" />
        </mxCell>
        <mxCell id="1UUe8_n6p-gTxrZzP8t--13" value="" style="triangle;whiteSpace=wrap;html=1;rotation=-90;fillColor=#dae8fc;strokeColor=#6c8ebf;" parent="1UUe8_n6p-gTxrZzP8t--11" vertex="1">
          <mxGeometry x="15" y="25" width="10" height="20" as="geometry" />
        </mxCell>
        <mxCell id="1UUe8_n6p-gTxrZzP8t--14" value="" style="endArrow=none;dashed=1;html=1;dashPattern=1 3;strokeWidth=2;rounded=0;" parent="1" edge="1">
          <mxGeometry width="50" height="50" relative="1" as="geometry">
            <mxPoint x="440" y="580" as="sourcePoint" />
            <mxPoint x="440" y="290" as="targetPoint" />
          </mxGeometry>
        </mxCell>
        <mxCell id="1UUe8_n6p-gTxrZzP8t--16" value="" style="endArrow=classic;html=1;rounded=0;entryX=0;entryY=0.25;entryDx=0;entryDy=0;entryPerimeter=0;exitX=1;exitY=1;exitDx=0;exitDy=0;" parent="1" source="1UUe8_n6p-gTxrZzP8t--40" target="1UUe8_n6p-gTxrZzP8t--70" edge="1">
          <mxGeometry width="50" height="50" relative="1" as="geometry">
            <mxPoint x="720" y="460" as="sourcePoint" />
            <mxPoint x="576.5" y="480.0000000000001" as="targetPoint" />
            <Array as="points">
              <mxPoint x="585" y="460" />
            </Array>
          </mxGeometry>
        </mxCell>
        <mxCell id="1UUe8_n6p-gTxrZzP8t--17" value="" style="endArrow=classic;html=1;rounded=0;exitX=1;exitY=0.5;exitDx=0;exitDy=0;entryX=0;entryY=0.75;entryDx=0;entryDy=0;entryPerimeter=0;" parent="1" source="1UUe8_n6p-gTxrZzP8t--22" target="1UUe8_n6p-gTxrZzP8t--70" edge="1">
          <mxGeometry width="50" height="50" relative="1" as="geometry">
            <mxPoint x="520" y="460" as="sourcePoint" />
            <mxPoint x="600" y="460" as="targetPoint" />
            <Array as="points">
              <mxPoint x="555" y="460" />
            </Array>
          </mxGeometry>
        </mxCell>
        <mxCell id="1UUe8_n6p-gTxrZzP8t--18" value="" style="endArrow=classic;html=1;rounded=0;exitX=0;exitY=0.5;exitDx=0;exitDy=0;entryX=0;entryY=0.75;entryDx=0;entryDy=0;" parent="1" source="1UUe8_n6p-gTxrZzP8t--12" edge="1">
          <mxGeometry width="50" height="50" relative="1" as="geometry">
            <mxPoint x="610" y="540" as="sourcePoint" />
            <mxPoint x="480" y="470" as="targetPoint" />
            <Array as="points">
              <mxPoint x="460" y="540" />
              <mxPoint x="460" y="470" />
            </Array>
          </mxGeometry>
        </mxCell>
        <mxCell id="1UUe8_n6p-gTxrZzP8t--22" value="!=" style="rounded=0;whiteSpace=wrap;html=1;" parent="1" vertex="1">
          <mxGeometry x="480" y="430" width="40" height="60" as="geometry" />
        </mxCell>
        <mxCell id="1UUe8_n6p-gTxrZzP8t--27" value="" style="endArrow=classic;html=1;rounded=0;exitX=1;exitY=0.5;exitDx=0;exitDy=0;entryX=1;entryY=1;entryDx=0;entryDy=0;" parent="1" target="1UUe8_n6p-gTxrZzP8t--28" edge="1">
          <mxGeometry width="50" height="50" relative="1" as="geometry">
            <mxPoint x="480" y="350" as="sourcePoint" />
            <mxPoint x="600" y="350" as="targetPoint" />
          </mxGeometry>
        </mxCell>
        <mxCell id="1UUe8_n6p-gTxrZzP8t--28" value="data&#39;2" style="text;html=1;strokeColor=none;fillColor=none;align=center;verticalAlign=middle;whiteSpace=wrap;rounded=0;fontFamily=Courier New;fontColor=#FF0000;" parent="1" vertex="1">
          <mxGeometry x="610" y="330" width="60" height="20" as="geometry" />
        </mxCell>
        <mxCell id="1UUe8_n6p-gTxrZzP8t--29" value="" style="endArrow=classic;html=1;rounded=0;entryX=0;entryY=0.5;entryDx=0;entryDy=0;exitX=0;exitY=1;exitDx=0;exitDy=0;" parent="1" source="1UUe8_n6p-gTxrZzP8t--41" target="1UUe8_n6p-gTxrZzP8t--4" edge="1">
          <mxGeometry width="50" height="50" relative="1" as="geometry">
            <mxPoint x="280" y="450" as="sourcePoint" />
            <mxPoint x="530" y="460" as="targetPoint" />
          </mxGeometry>
        </mxCell>
        <mxCell id="1UUe8_n6p-gTxrZzP8t--30" value="" style="endArrow=classic;html=1;rounded=0;entryX=0;entryY=0.5;entryDx=0;entryDy=0;" parent="1" edge="1">
          <mxGeometry width="50" height="50" relative="1" as="geometry">
            <mxPoint x="340" y="450" as="sourcePoint" />
            <mxPoint x="400" y="380" as="targetPoint" />
            <Array as="points">
              <mxPoint x="340" y="380" />
            </Array>
          </mxGeometry>
        </mxCell>
        <mxCell id="1UUe8_n6p-gTxrZzP8t--32" value="wr_en&#39;0" style="text;html=1;strokeColor=none;fillColor=none;align=center;verticalAlign=middle;whiteSpace=wrap;rounded=0;fontFamily=Courier New;fontColor=#006600;" parent="1" vertex="1">
          <mxGeometry x="340" y="360" width="60" height="20" as="geometry" />
        </mxCell>
        <mxCell id="1UUe8_n6p-gTxrZzP8t--34" value="" style="endArrow=classic;html=1;rounded=0;entryX=0.5;entryY=1;entryDx=0;entryDy=0;" parent="1" edge="1">
          <mxGeometry width="50" height="50" relative="1" as="geometry">
            <mxPoint x="460" y="470" as="sourcePoint" />
            <mxPoint x="460" y="410" as="targetPoint" />
          </mxGeometry>
        </mxCell>
        <mxCell id="1UUe8_n6p-gTxrZzP8t--35" value="rd_addr&#39;0" style="text;html=1;strokeColor=none;fillColor=none;align=center;verticalAlign=middle;whiteSpace=wrap;rounded=0;fontFamily=Courier New;fontColor=#FF0000;" parent="1" vertex="1">
          <mxGeometry x="460" y="410" width="80" height="20" as="geometry" />
        </mxCell>
        <mxCell id="1UUe8_n6p-gTxrZzP8t--37" value="" style="endArrow=classic;html=1;rounded=0;entryX=0;entryY=0.5;entryDx=0;entryDy=0;exitX=0;exitY=1;exitDx=0;exitDy=0;" parent="1" source="1UUe8_n6p-gTxrZzP8t--38" edge="1">
          <mxGeometry width="50" height="50" relative="1" as="geometry">
            <mxPoint x="280" y="350" as="sourcePoint" />
            <mxPoint x="400" y="350" as="targetPoint" />
          </mxGeometry>
        </mxCell>
        <mxCell id="1UUe8_n6p-gTxrZzP8t--38" value="data&#39;0" style="text;html=1;strokeColor=none;fillColor=none;align=center;verticalAlign=middle;whiteSpace=wrap;rounded=0;fontFamily=Courier New;fontColor=#006600;" parent="1" vertex="1">
          <mxGeometry x="170" y="330" width="60" height="20" as="geometry" />
        </mxCell>
        <mxCell id="1UUe8_n6p-gTxrZzP8t--40" value="read_req&#39;0" style="text;html=1;strokeColor=none;fillColor=none;align=center;verticalAlign=middle;whiteSpace=wrap;rounded=0;fontFamily=Courier New;fontColor=#FF0000;" parent="1" vertex="1">
          <mxGeometry x="590" y="440" width="80" height="20" as="geometry" />
        </mxCell>
        <mxCell id="1UUe8_n6p-gTxrZzP8t--41" value="write&#39;0" style="text;html=1;strokeColor=none;fillColor=none;align=center;verticalAlign=middle;whiteSpace=wrap;rounded=0;fontFamily=Courier New;fontColor=#006600;" parent="1" vertex="1">
          <mxGeometry x="170" y="430" width="60" height="20" as="geometry" />
        </mxCell>
        <mxCell id="1UUe8_n6p-gTxrZzP8t--49" value="- &amp;lt; 4" style="rounded=0;whiteSpace=wrap;html=1;" parent="1" vertex="1">
          <mxGeometry x="360" y="500" width="40" height="60" as="geometry" />
        </mxCell>
        <mxCell id="1UUe8_n6p-gTxrZzP8t--50" value="" style="endArrow=classic;html=1;rounded=0;" parent="1" edge="1">
          <mxGeometry width="50" height="50" relative="1" as="geometry">
            <mxPoint x="460" y="540" as="sourcePoint" />
            <mxPoint x="400" y="540" as="targetPoint" />
          </mxGeometry>
        </mxCell>
        <mxCell id="1UUe8_n6p-gTxrZzP8t--51" value="" style="endArrow=classic;html=1;rounded=0;" parent="1" edge="1">
          <mxGeometry width="50" height="50" relative="1" as="geometry">
            <mxPoint x="420" y="450" as="sourcePoint" />
            <mxPoint x="400" y="520" as="targetPoint" />
            <Array as="points">
              <mxPoint x="420" y="520" />
            </Array>
          </mxGeometry>
        </mxCell>
        <mxCell id="1UUe8_n6p-gTxrZzP8t--53" value="" style="group" parent="1" vertex="1" connectable="0">
          <mxGeometry x="300" y="510" width="40" height="40" as="geometry" />
        </mxCell>
        <mxCell id="1UUe8_n6p-gTxrZzP8t--54" value="" style="group;fillColor=#fff2cc;strokeColor=#d6b656;container=0;" parent="1UUe8_n6p-gTxrZzP8t--53" vertex="1" connectable="0">
          <mxGeometry width="40" height="40" as="geometry" />
        </mxCell>
        <mxCell id="1UUe8_n6p-gTxrZzP8t--55" value="" style="rounded=0;whiteSpace=wrap;html=1;fillColor=#fff2cc;strokeColor=#d6b656;container=0;" parent="1UUe8_n6p-gTxrZzP8t--53" vertex="1">
          <mxGeometry width="40" height="40" as="geometry" />
        </mxCell>
        <mxCell id="1UUe8_n6p-gTxrZzP8t--56" value="" style="triangle;whiteSpace=wrap;html=1;rotation=-90;fillColor=#fff2cc;strokeColor=#d6b656;container=0;" parent="1UUe8_n6p-gTxrZzP8t--53" vertex="1">
          <mxGeometry x="15" y="25" width="10" height="20" as="geometry" />
        </mxCell>
        <mxCell id="1UUe8_n6p-gTxrZzP8t--57" value="" style="endArrow=classic;html=1;rounded=0;entryX=1;entryY=0.5;entryDx=0;entryDy=0;" parent="1" target="1UUe8_n6p-gTxrZzP8t--55" edge="1">
          <mxGeometry width="50" height="50" relative="1" as="geometry">
            <mxPoint x="360" y="530" as="sourcePoint" />
            <mxPoint x="340" y="530" as="targetPoint" />
          </mxGeometry>
        </mxCell>
        <mxCell id="1UUe8_n6p-gTxrZzP8t--58" value="ready&#39;-3" style="text;html=1;strokeColor=none;fillColor=none;align=center;verticalAlign=middle;whiteSpace=wrap;rounded=0;fontFamily=Courier New;fontColor=#006600;" parent="1" vertex="1">
          <mxGeometry x="170" y="510" width="60" height="20" as="geometry" />
        </mxCell>
        <mxCell id="1UUe8_n6p-gTxrZzP8t--59" value="offset&lt;br&gt;-4" style="rounded=0;whiteSpace=wrap;html=1;fillColor=#f5f5f5;fontColor=#333333;strokeColor=#666666;" parent="1" vertex="1">
          <mxGeometry x="240" y="500" width="40" height="60" as="geometry" />
        </mxCell>
        <mxCell id="1UUe8_n6p-gTxrZzP8t--61" value="" style="endArrow=classic;html=1;rounded=0;exitX=1;exitY=0.5;exitDx=0;exitDy=0;" parent="1" edge="1">
          <mxGeometry width="50" height="50" relative="1" as="geometry">
            <mxPoint x="400" y="450" as="sourcePoint" />
            <mxPoint x="480" y="450" as="targetPoint" />
          </mxGeometry>
        </mxCell>
        <mxCell id="1UUe8_n6p-gTxrZzP8t--62" value="" style="endArrow=classic;html=1;rounded=0;entryX=0.5;entryY=1;entryDx=0;entryDy=0;" parent="1" edge="1">
          <mxGeometry width="50" height="50" relative="1" as="geometry">
            <mxPoint x="420" y="450" as="sourcePoint" />
            <mxPoint x="420" y="410" as="targetPoint" />
          </mxGeometry>
        </mxCell>
        <mxCell id="1UUe8_n6p-gTxrZzP8t--63" value="" style="endArrow=classic;html=1;rounded=0;entryX=1;entryY=0.5;entryDx=0;entryDy=0;" parent="1" edge="1">
          <mxGeometry width="50" height="50" relative="1" as="geometry">
            <mxPoint x="300" y="530" as="sourcePoint" />
            <mxPoint x="280" y="530" as="targetPoint" />
          </mxGeometry>
        </mxCell>
        <mxCell id="1UUe8_n6p-gTxrZzP8t--64" value="" style="endArrow=classic;html=1;rounded=0;entryX=0;entryY=1;entryDx=0;entryDy=0;" parent="1" target="1UUe8_n6p-gTxrZzP8t--58" edge="1">
          <mxGeometry width="50" height="50" relative="1" as="geometry">
            <mxPoint x="240" y="530" as="sourcePoint" />
            <mxPoint x="220" y="530" as="targetPoint" />
          </mxGeometry>
        </mxCell>
        <mxCell id="1UUe8_n6p-gTxrZzP8t--65" value="" style="endArrow=none;dashed=1;html=1;dashPattern=1 3;strokeWidth=2;rounded=0;exitX=0;exitY=0.5;exitDx=0;exitDy=0;entryX=1;entryY=0.5;entryDx=0;entryDy=0;elbow=vertical;" parent="1" source="1UUe8_n6p-gTxrZzP8t--59" target="1UUe8_n6p-gTxrZzP8t--59" edge="1">
          <mxGeometry width="50" height="50" relative="1" as="geometry">
            <mxPoint x="270" y="540" as="sourcePoint" />
            <mxPoint x="320" y="490" as="targetPoint" />
          </mxGeometry>
        </mxCell>
        <mxCell id="1UUe8_n6p-gTxrZzP8t--70" value="" style="shape=or;whiteSpace=wrap;html=1;rotation=90;" parent="1" vertex="1">
          <mxGeometry x="550" y="470" width="40" height="60" as="geometry" />
        </mxCell>
        <mxCell id="1UUe8_n6p-gTxrZzP8t--71" value="" style="endArrow=classic;html=1;rounded=0;exitX=1;exitY=0.5;exitDx=0;exitDy=0;entryX=1;entryY=0.5;entryDx=0;entryDy=0;exitPerimeter=0;" parent="1" source="1UUe8_n6p-gTxrZzP8t--70" target="1UUe8_n6p-gTxrZzP8t--12" edge="1">
          <mxGeometry width="50" height="50" relative="1" as="geometry">
            <mxPoint x="530" y="470" as="sourcePoint" />
            <mxPoint x="563" y="490" as="targetPoint" />
            <Array as="points">
              <mxPoint x="570" y="540" />
            </Array>
          </mxGeometry>
        </mxCell>
        <mxCell id="1UUe8_n6p-gTxrZzP8t--72" value="" style="endArrow=classic;html=1;rounded=0;entryX=1;entryY=1;entryDx=0;entryDy=0;" parent="1" target="1UUe8_n6p-gTxrZzP8t--74" edge="1">
          <mxGeometry width="50" height="50" relative="1" as="geometry">
            <mxPoint x="560" y="540" as="sourcePoint" />
            <mxPoint x="710" y="540" as="targetPoint" />
          </mxGeometry>
        </mxCell>
        <mxCell id="1UUe8_n6p-gTxrZzP8t--74" value="valid&#39;0" style="text;html=1;strokeColor=none;fillColor=none;align=center;verticalAlign=middle;whiteSpace=wrap;rounded=0;fontFamily=Courier New;fontColor=#FF0000;" parent="1" vertex="1">
          <mxGeometry x="590" y="520" width="80" height="20" as="geometry" />
        </mxCell>
        <mxCell id="1UUe8_n6p-gTxrZzP8t--76" value="" style="triangle;whiteSpace=wrap;html=1;" parent="1" vertex="1">
          <mxGeometry x="430" y="440" width="20" height="20" as="geometry" />
        </mxCell>
        <mxCell id="1UUe8_n6p-gTxrZzP8t--77" value="" style="triangle;whiteSpace=wrap;html=1;flipV=1;flipH=1;" parent="1" vertex="1">
          <mxGeometry x="430" y="530" width="20" height="20" as="geometry" />
        </mxCell>
        <mxCell id="1UUe8_n6p-gTxrZzP8t--78" value="" style="rounded=0;whiteSpace=wrap;html=1;fillColor=#fff2cc;strokeColor=#d6b656;" parent="1" vertex="1">
          <mxGeometry x="468" y="345" width="10" height="10" as="geometry" />
        </mxCell>
        <mxCell id="1UUe8_n6p-gTxrZzP8t--79" value="" style="rounded=0;whiteSpace=wrap;html=1;fillColor=#fff2cc;strokeColor=#d6b656;" parent="1" vertex="1">
          <mxGeometry x="458" y="345" width="10" height="10" as="geometry" />
        </mxCell>
        <mxCell id="GreWj3RCLaAFlbZnBTsM-1" value="Memory" style="text;html=1;strokeColor=none;fillColor=none;align=center;verticalAlign=middle;whiteSpace=wrap;rounded=0;" vertex="1" parent="1">
          <mxGeometry x="410" y="260" width="60" height="30" as="geometry" />
        </mxCell>
        <mxCell id="GreWj3RCLaAFlbZnBTsM-2" value="rd_addr&#39;0" style="text;html=1;strokeColor=none;fillColor=none;align=center;verticalAlign=middle;whiteSpace=wrap;rounded=0;fontFamily=Courier New;fontColor=#FF0000;" vertex="1" parent="1">
          <mxGeometry x="460" y="500" width="80" height="20" as="geometry" />
        </mxCell>
        <mxCell id="GreWj3RCLaAFlbZnBTsM-3" value="Write" style="text;html=1;strokeColor=none;fillColor=none;align=center;verticalAlign=middle;whiteSpace=wrap;rounded=0;" vertex="1" parent="1">
          <mxGeometry x="360" y="280" width="40" height="30" as="geometry" />
        </mxCell>
        <mxCell id="GreWj3RCLaAFlbZnBTsM-4" value="Read" style="text;html=1;strokeColor=none;fillColor=none;align=center;verticalAlign=middle;whiteSpace=wrap;rounded=0;" vertex="1" parent="1">
          <mxGeometry x="480" y="280" width="40" height="30" as="geometry" />
        </mxCell>
      </root>
    </mxGraphModel>
  </diagram>
</mxfile>
